<svg width="314" height="50" viewBox="0 0 314 50" fill="none" xmlns="http://www.w3.org/2000/svg">
<path d="M23.2041 40H2.01775V38.4867C3.06866 38.3886 3.8183 38.2905 4.26669 38.1924C4.71508 38.0944 5.05137 37.8561 5.27557 37.4778C5.51377 37.0995 5.63288 36.588 5.63288 35.9435V14.61C5.63288 13.9374 5.51377 13.426 5.27557 13.0757C5.05137 12.7254 4.56795 12.4171 3.82531 12.1509C3.08267 11.8707 2.48015 11.7095 2.01775 11.6675V10.1752H13.7669V11.6675C13.0943 11.7235 12.2816 11.8987 11.3288 12.1929C10.5161 12.5292 10.1097 13.2579 10.1097 14.3788V34.4092C10.1097 35.7683 10.1938 36.6791 10.362 37.1415C10.5441 37.6039 10.8524 37.9262 11.2868 38.1084C11.7352 38.2765 12.681 38.3606 14.1242 38.3606C15.3713 38.3606 16.3802 38.2695 17.1508 38.0873C17.9355 37.9052 18.5661 37.5199 19.0425 36.9313C19.5329 36.3428 20.1354 35.418 20.85 34.1569C21.5787 32.8818 22.0761 31.873 22.3423 31.1303H23.8556L23.2041 40ZM42.8141 39.6217C41.4969 40.1541 40.439 40.4204 39.6403 40.4204C37.5525 40.4204 36.3475 39.4185 36.0252 37.4148H35.8781C34.3227 39.4886 32.403 40.5255 30.1191 40.5255C28.8019 40.5255 27.709 40.056 26.8402 39.1172C25.9855 38.1644 25.5581 36.9103 25.5581 35.355C25.5581 32.5666 26.8052 30.6399 29.2994 29.575L31.0018 28.8393C33.6081 27.8585 35.2475 27.1579 35.9201 26.7375V24.6777C35.9201 23.3886 35.6609 22.3307 35.1424 21.504C34.624 20.6633 33.8953 20.2429 32.9565 20.2429C32.4241 20.2429 31.9617 20.341 31.5693 20.5372C31.177 20.7193 30.8967 20.9085 30.7286 21.1046L30.7916 21.6932C31.0018 22.8141 31.1069 23.5778 31.1069 23.9841C31.1069 24.5446 30.8617 25.007 30.3713 25.3713C29.8809 25.7357 29.2924 25.9178 28.6058 25.9178C27.9612 25.9178 27.4638 25.7006 27.1135 25.2662C26.7632 24.8179 26.588 24.2364 26.588 23.5217C26.588 22.2186 27.2466 21.0906 28.5637 20.1378C29.8809 19.171 31.4152 18.6876 33.1667 18.6876C35.6048 18.6876 37.3353 19.255 38.3582 20.39C39.3811 21.525 39.8925 23.2415 39.8925 25.5395L39.7664 35.9015C39.7664 36.3218 39.8085 36.6791 39.8925 36.9734C39.9906 37.2676 40.1447 37.5269 40.3549 37.7511C40.5791 37.9752 40.7963 38.1224 41.0065 38.1924C41.2167 38.2485 41.8192 38.2765 42.8141 38.2765V39.6217ZM35.9621 28.2929C34.2106 28.9655 32.9355 29.589 32.1368 30.1635C31.3521 30.738 30.7636 31.3966 30.3713 32.1392C29.9789 32.8818 29.7828 33.7786 29.7828 34.8295C29.7828 35.9925 30.021 36.8473 30.4974 37.3937C30.9738 37.9262 31.5623 38.1924 32.2629 38.1924C32.7393 38.1924 33.1667 38.1224 33.545 37.9823C33.9234 37.8281 34.2667 37.6249 34.5749 37.3727C34.8972 37.1065 35.3176 36.6301 35.836 35.9435L35.9621 28.2929ZM56.3077 39.0962C54.4301 39.979 52.7206 40.4204 51.1793 40.4204C49.708 40.4204 48.6151 40.021 47.9005 39.2223C47.1858 38.4236 46.8285 37.1625 46.8285 35.4391V21.3569H43.4656V19.3812H46.9126V12.9286H50.7379V19.3812H55.7823V21.3569H50.7799V32.9379C50.7799 34.4512 50.864 35.5161 51.0322 36.1327C51.2143 36.7492 51.5086 37.1976 51.9149 37.4778C52.3213 37.7581 52.9098 37.8982 53.6805 37.8982C54.1569 37.8982 54.6683 37.8561 55.2148 37.7721C55.7613 37.688 56.1256 37.6109 56.3077 37.5409V39.0962ZM75.0349 35.1448C74.2923 36.7842 73.2414 38.1014 71.8822 39.0962C70.523 40.0771 69.0097 40.5675 67.3423 40.5675C65.4787 40.5675 63.8673 40.1121 62.5081 39.2013C61.1489 38.2765 60.112 36.9734 59.3974 35.2919C58.6968 33.6105 58.3465 31.6628 58.3465 29.4489C58.3465 27.5152 58.7108 25.7146 59.4394 24.0472C60.1821 22.3798 61.205 21.0696 62.5081 20.1168C63.8112 19.164 65.2755 18.6876 66.9009 18.6876C69.311 18.6876 71.1816 19.4722 72.5128 21.0416C73.8579 22.5969 74.5305 24.7828 74.5305 27.5993V28.9865H62.5081C62.5081 31.943 63.0265 34.227 64.0634 35.8384C65.1003 37.4358 66.5786 38.2345 68.4983 38.2345C69.5492 38.2345 70.453 37.9682 71.2096 37.4358C71.9663 36.8893 72.786 35.8384 73.6688 34.2831L75.0349 35.1448ZM70.3899 27.2209C70.3899 24.923 70.0817 23.1925 69.4651 22.0294C68.8626 20.8664 67.9798 20.2849 66.8168 20.2849C65.5838 20.2849 64.5679 20.9155 63.7692 22.1766C62.9845 23.4377 62.5641 25.1191 62.5081 27.2209H70.3899ZM91.1979 34.0098C91.1979 35.9435 90.5674 37.5199 89.3063 38.7389C88.0452 39.958 86.4268 40.5675 84.4511 40.5675C83.5823 40.5675 82.6856 40.3783 81.7608 40C80.836 39.6077 80.1354 39.1803 79.6589 38.7179L79.2386 40.042H77.6832L77.473 32.8538H78.8813C79.0914 33.9047 79.4698 34.8996 80.0162 35.8384C80.5627 36.7772 81.2143 37.5269 81.9709 38.0873C82.7276 38.6478 83.5543 38.9281 84.4511 38.9281C85.5861 38.9281 86.4548 38.6198 87.0573 38.0033C87.6599 37.3867 87.9611 36.518 87.9611 35.397C87.9611 34.3601 87.6459 33.5264 87.0153 32.8959C86.3848 32.2513 85.2077 31.6348 83.4843 31.0463C81.5646 30.3877 80.1634 29.5399 79.2806 28.503C78.4119 27.4662 77.9775 26.2191 77.9775 24.7618C77.9775 22.9963 78.531 21.546 79.6379 20.411C80.7449 19.2621 82.1741 18.6876 83.9256 18.6876C84.6683 18.6876 85.3899 18.7926 86.0905 19.0028C86.7911 19.213 87.3586 19.4652 87.793 19.7595L88.2764 18.6455H89.7687L90.126 25.3293H88.6547C88.3745 23.7459 87.842 22.5129 87.0573 21.6301C86.2727 20.7333 85.3268 20.2849 84.2199 20.2849C83.3091 20.2849 82.5805 20.5722 82.034 21.1467C81.4875 21.7212 81.2143 22.4218 81.2143 23.2485C81.2143 23.9351 81.3264 24.5096 81.5506 24.972C81.7748 25.4204 82.1321 25.8197 82.6225 26.17C83.1269 26.5203 84.1498 26.9967 85.6912 27.5993C87.2885 28.2298 88.4305 28.8183 89.1171 29.3648C89.8037 29.9113 90.3222 30.5558 90.6725 31.2985C91.0228 32.0411 91.1979 32.9449 91.1979 34.0098ZM105.658 39.0962C103.781 39.979 102.071 40.4204 100.53 40.4204C99.0587 40.4204 97.9658 40.021 97.2512 39.2223C96.5365 38.4236 96.1792 37.1625 96.1792 35.4391V21.3569H92.8163V19.3812H96.2633V12.9286H100.089V19.3812H105.133V21.3569H100.131V32.9379C100.131 34.4512 100.215 35.5161 100.383 36.1327C100.565 36.7492 100.859 37.1976 101.266 37.4778C101.672 37.7581 102.261 37.8982 103.031 37.8982C103.508 37.8982 104.019 37.8561 104.565 37.7721C105.112 37.688 105.476 37.6109 105.658 37.5409V39.0962ZM136.955 26.8216C136.955 29.2037 136.464 31.4666 135.483 33.6105C134.502 35.7403 133.171 37.4358 131.49 38.6969C129.808 39.944 128.043 40.5675 126.193 40.5675C125.114 40.5675 124.225 40.4134 123.524 40.1051C122.823 39.8108 122.207 39.4465 121.674 39.0121L120.455 44.5189C120.287 45.2896 120.203 45.8641 120.203 46.2424C120.203 46.7328 120.42 47.1182 120.855 47.3984C121.303 47.6786 122.165 47.8818 123.44 48.0079L123.167 49.3321H112.447L112.763 48.0079C113.785 47.9239 114.486 47.8258 114.864 47.7137C115.607 47.4474 116.083 46.7819 116.294 45.7169L120.686 26.4012C120.995 24.9019 121.149 23.809 121.149 23.1224C121.149 22.4778 121.044 22.0294 120.834 21.7772C120.637 21.525 120.252 21.3989 119.678 21.3989C118.935 21.3989 118.136 21.56 117.282 21.8823L117.534 20.4951C119.467 19.5283 121.044 19.0449 122.263 19.0449C124.112 19.0449 125.177 19.9767 125.458 21.8403H125.584C126.747 20.6773 127.756 19.8786 128.61 19.4442C129.465 18.9958 130.278 18.7716 131.048 18.7716C132.898 18.7716 134.341 19.5003 135.378 20.9575C136.429 22.4008 136.955 24.3555 136.955 26.8216ZM132.604 26.9057C132.604 25.028 132.331 23.5918 131.784 22.5969C131.238 21.6021 130.446 21.1046 129.409 21.1046C128.792 21.1046 128.155 21.3148 127.496 21.7352C126.838 22.1415 126.06 22.8632 125.163 23.9001L122.452 35.8174C122.494 36.3358 122.676 36.8613 122.998 37.3937C123.335 37.9122 123.748 38.3256 124.239 38.6338C124.743 38.9421 125.303 39.0962 125.92 39.0962C127.139 39.0962 128.267 38.5497 129.304 37.4568C130.341 36.3639 131.147 34.8856 131.721 33.022C132.31 31.1583 132.604 29.1196 132.604 26.9057ZM156.333 22.2186C156.333 23.2695 156.081 24.1383 155.577 24.8249C155.072 25.4974 154.393 25.8337 153.538 25.8337C152.781 25.8337 152.214 25.6516 151.835 25.2873C151.471 24.923 151.289 24.5026 151.289 24.0262C151.289 23.3396 151.604 22.3237 152.235 20.9785C151.674 20.9785 150.953 21.3709 150.07 22.1556C149.187 22.9262 148.388 23.851 147.674 24.93L144.29 40H140.359L143.428 26.4012C143.47 26.191 143.519 25.9528 143.575 25.6866C143.631 25.4204 143.687 25.1471 143.743 24.8669C143.799 24.5726 143.841 24.2994 143.87 24.0472C143.912 23.781 143.933 23.5568 143.933 23.3746C143.933 22.66 143.82 22.1556 143.596 21.8613C143.372 21.553 142.952 21.3989 142.335 21.3989C141.971 21.3989 141.543 21.455 141.053 21.567C140.577 21.6791 140.261 21.7702 140.107 21.8403L140.402 20.4531C142.363 19.5143 143.975 19.0449 145.236 19.0449C146.287 19.0449 147.022 19.3531 147.443 19.9697C147.863 20.5722 148.073 21.483 148.073 22.702H148.157C150.217 20.0818 151.997 18.7716 153.496 18.7716C155.387 18.7716 156.333 19.9206 156.333 22.2186ZM176.09 27.0528C176.09 29.4909 175.586 31.7819 174.577 33.9257C173.568 36.0696 172.209 37.73 170.5 38.9071C168.804 40.0701 166.884 40.6516 164.741 40.6516C162.611 40.6516 160.88 39.9019 159.549 38.4026C158.218 36.8893 157.552 34.8646 157.552 32.3284C157.552 29.8903 158.043 27.6203 159.024 25.5185C160.004 23.4166 161.357 21.7702 163.08 20.5792C164.818 19.3741 166.73 18.7716 168.818 18.7716C171.046 18.7716 172.812 19.5213 174.115 21.0206C175.432 22.5059 176.09 24.5166 176.09 27.0528ZM171.845 26.2751C171.845 24.2994 171.543 22.8071 170.941 21.7982C170.338 20.7894 169.463 20.2849 168.314 20.2849C167.067 20.2849 165.953 20.8104 164.972 21.8613C164.005 22.9122 163.234 24.4816 162.66 26.5694C162.085 28.6432 161.798 30.794 161.798 33.022C161.798 37.0995 162.989 39.1383 165.371 39.1383C166.618 39.1383 167.732 38.5778 168.713 37.4568C169.694 36.3218 170.458 34.7455 171.004 32.7277C171.564 30.71 171.845 28.5591 171.845 26.2751ZM189.92 10.8688C189.92 11.6535 189.661 12.3471 189.143 12.9496C188.624 13.5381 187.98 13.8324 187.209 13.8324C186.508 13.8324 185.892 13.5591 185.359 13.0126C184.841 12.4522 184.582 11.7936 184.582 11.0369C184.582 10.2523 184.841 9.57267 185.359 8.99817C185.878 8.42367 186.494 8.13642 187.209 8.13642C187.98 8.13642 188.624 8.40265 189.143 8.93511C189.661 9.46758 189.92 10.1121 189.92 10.8688ZM187.083 21.7562C187.083 22.3587 186.775 24.2083 186.158 27.305C185.542 30.4017 184.715 34.22 183.678 38.7599C183.244 40.7496 182.508 42.5502 181.471 44.1616C180.448 45.773 179.243 47.0341 177.856 47.9449C176.469 48.8697 175.068 49.3321 173.652 49.3321C172.489 49.3321 171.642 49.0939 171.109 48.6175C170.563 48.141 170.289 47.5525 170.289 46.8519C170.289 46.1934 170.472 45.6469 170.836 45.2125C171.186 44.7781 171.649 44.5609 172.223 44.5609C173.162 44.5609 173.975 45.2265 174.661 46.5577L175.229 47.6086C177.064 47.4965 178.514 44.7992 179.579 39.5166C180.574 35.2709 181.541 30.8151 182.48 26.149C182.76 24.7058 182.9 23.6128 182.9 22.8702C182.9 22.3097 182.788 21.8893 182.564 21.6091C182.34 21.3288 181.933 21.1887 181.345 21.1887C180.995 21.1887 180.56 21.2378 180.042 21.3358C179.537 21.4339 179.11 21.546 178.76 21.6721L179.075 20.2849C181.289 19.2761 182.935 18.7716 184.014 18.7716C186.06 18.7716 187.083 19.7665 187.083 21.7562ZM206.399 23.1644C206.399 24.6217 205.992 25.8968 205.18 26.9897C204.381 28.0687 203.029 28.9795 201.123 29.7221C199.231 30.4647 196.954 31.0322 194.292 31.4246C194.292 35.9645 195.672 38.2345 198.433 38.2345C199.456 38.2345 200.443 37.9122 201.396 37.2676C202.349 36.6091 203.323 35.5511 204.318 34.0939L205.495 34.9556C204.43 36.7212 203.134 38.1084 201.606 39.1172C200.093 40.1121 198.545 40.6095 196.961 40.6095C194.762 40.6095 193.066 39.9159 191.875 38.5287C190.698 37.1275 190.11 35.1518 190.11 32.6016C190.11 30.1775 190.6 27.8725 191.581 25.6866C192.576 23.4867 193.9 21.7842 195.553 20.5792C197.221 19.3741 199.042 18.7716 201.018 18.7716C202.727 18.7716 204.052 19.157 204.99 19.9276C205.929 20.6983 206.399 21.7772 206.399 23.1644ZM202.51 22.7861C202.51 21.1187 201.838 20.2849 200.493 20.2849C199.582 20.2849 198.692 20.7053 197.823 21.546C196.968 22.3868 196.233 23.5568 195.616 25.0561C195.014 26.5554 194.614 28.1948 194.418 29.9743C195.385 29.7922 196.303 29.596 197.172 29.3858C198.04 29.1756 198.874 28.8253 199.673 28.3349C201.564 27.1859 202.51 25.3363 202.51 22.7861ZM224.495 23.2485C224.495 24.3274 224.25 25.2102 223.76 25.8968C223.283 26.5694 222.625 26.9057 221.784 26.9057C221.041 26.9057 220.474 26.7165 220.081 26.3382C219.703 25.9598 219.514 25.5325 219.514 25.0561C219.514 24.2153 219.913 22.9823 220.712 21.3569C220.278 20.6422 219.535 20.2849 218.484 20.2849C217.475 20.2849 216.522 20.7894 215.626 21.7982C214.729 22.8071 214.021 24.1873 213.503 25.9388C212.998 27.6903 212.746 29.638 212.746 31.7819C212.746 33.7576 213.124 35.327 213.881 36.49C214.638 37.653 215.668 38.2345 216.971 38.2345C217.98 38.2345 218.932 37.9262 219.829 37.3097C220.726 36.6791 221.665 35.6212 222.646 34.1359L223.823 34.9556C221.539 38.7249 218.785 40.6095 215.563 40.6095C213.321 40.6095 211.576 39.8809 210.329 38.4236C209.082 36.9524 208.458 34.9206 208.458 32.3284C208.458 29.9043 208.921 27.6413 209.846 25.5395C210.784 23.4237 212.067 21.7702 213.692 20.5792C215.317 19.3741 217.083 18.7716 218.989 18.7716C220.698 18.7716 222.043 19.178 223.024 19.9907C224.005 20.7894 224.495 21.8753 224.495 23.2485ZM239.313 21.3569H234.374L231.705 32.9379C231.382 34.227 231.221 35.2499 231.221 36.0065C231.221 36.6791 231.389 37.1836 231.726 37.5199C232.076 37.8561 232.685 38.0243 233.554 38.0243C233.862 38.0243 234.297 37.9682 234.857 37.8561C235.418 37.744 235.845 37.6249 236.139 37.4988L235.824 39.0542C233.75 39.965 231.957 40.4204 230.443 40.4204C228.117 40.4204 226.954 39.3765 226.954 37.2887C226.954 36.7702 227.031 36.1537 227.186 35.4391L230.443 21.3569H227.186L227.564 19.4652H230.969L232.44 13.3069H236.223L234.794 19.4652H239.754L239.313 21.3569ZM254.488 22.0505C254.488 22.653 254.278 23.1854 253.858 23.6478C253.437 24.1102 252.94 24.3414 252.365 24.3414C251.118 24.3414 250.222 23.4867 249.675 21.7772L249.192 20.4951C248.911 20.355 248.568 20.2849 248.162 20.2849C247.279 20.2849 246.564 20.6212 246.018 21.2938C245.485 21.9664 245.219 22.8211 245.219 23.858C245.219 24.7268 245.436 25.4554 245.871 26.0439C246.305 26.6324 247.209 27.298 248.582 28.0406C250.039 28.8393 251.013 29.4699 251.504 29.9323C251.994 30.3947 252.372 30.9201 252.639 31.5087C252.919 32.0831 253.059 32.7627 253.059 33.5474C253.059 35.6352 252.337 37.3377 250.894 38.6548C249.465 39.958 247.622 40.6095 245.366 40.6095C243.517 40.6095 241.968 40.2452 240.721 39.5166C239.474 38.7739 238.851 37.8001 238.851 36.5951C238.851 35.9365 239.054 35.397 239.46 34.9767C239.867 34.5423 240.371 34.3251 240.974 34.3251C242.249 34.3251 243.166 35.2219 243.727 37.0154L244.105 38.2345C244.498 38.809 245.128 39.0962 245.997 39.0962C247.062 39.0962 247.903 38.7529 248.519 38.0663C249.136 37.3657 249.444 36.4059 249.444 35.1868C249.444 34.5843 249.346 34.0589 249.15 33.6105C248.953 33.1481 248.638 32.7277 248.204 32.3494C247.783 31.9711 247.034 31.4946 245.955 30.9201C244.778 30.3176 243.916 29.7711 243.37 29.2807C242.837 28.7903 242.424 28.2228 242.13 27.5782C241.849 26.9337 241.709 26.184 241.709 25.3293C241.709 24.1663 242.024 23.0734 242.655 22.0505C243.3 21.0276 244.182 20.2289 245.303 19.6544C246.438 19.0659 247.664 18.7716 248.981 18.7716C250.719 18.7716 252.071 19.0659 253.038 19.6544C254.005 20.2429 254.488 21.0416 254.488 22.0505Z" fill="#112A12"/>
<circle cx="292.54" cy="27.1079" r="19.9074" stroke="#112A12" stroke-width="3.10612" stroke-linecap="round" stroke-linejoin="round"/>
<path d="M301.011 19.2014V35.5791M301.011 35.5791H285.101H284.633M301.011 35.5791L284.633 19.2014" stroke="#112A12" stroke-width="3.10612" stroke-linecap="round" stroke-linejoin="round"/>
</svg>
